<svg id="SvgjsSvg1001" width="288" height="288" xmlns="http://www.w3.org/2000/svg" version="1.1" xmlns:xlink="http://www.w3.org/1999/xlink" xmlns:svgjs="http://svgjs.com/svgjs"><circle id="SvgjsCircle1013" r="144" cx="144" cy="144" fill="#000000" transform="matrix(0.9167,0,0,0.9167,11.995200000000011,11.995200000000011)"></circle><defs id="SvgjsDefs1002"></defs><g id="SvgjsG1008" transform="matrix(0.63,0,0,0.63,53.27999911785126,53.280005645751956)"><svg xmlns="http://www.w3.org/2000/svg" enable-background="new 0 0 116.39 122.88" viewBox="0 0 116.39 122.88" width="288" height="288"><path fill-rule="evenodd" d="M7.99,50.7h108.4v62.91c0,5.09-4.17,9.27-9.27,9.27H16.5c-5.09,0-9.27-4.17-9.27-9.27V50.92L0,28.83 l15.75-4.47l8.11,21.81L7.99,50.7L7.99,50.7z M23.65,84.52c-1.2,0-2.17-0.97-2.17-2.17s0.97-2.17,2.17-2.17h54.51 c1.2,0,2.17,0.97,2.17,2.17s-0.97,2.17-2.17,2.17H23.65L23.65,84.52z M23.65,73.02c-1.2,0-2.17-0.97-2.17-2.17 c0-1.2,0.97-2.17,2.17-2.17H59.2c1.2,0,2.17,0.97,2.17,2.17c0,1.2-0.97,2.17-2.17,2.17H23.65L23.65,73.02z M106.24,62H17.39 c-0.31,0-0.59,0.13-0.79,0.33c-0.2,0.2-0.33,0.48-0.33,0.79v27c0,0.31,0.13,0.59,0.33,0.79c0.2,0.2,0.48,0.33,0.79,0.33h88.85 c0.31,0,0.59-0.13,0.79-0.33s0.33-0.49,0.33-0.79v-27c0-0.31-0.13-0.59-0.33-0.79C106.83,62.13,106.54,62,106.24,62L106.24,62z M33.42,43.43l18.94-5.42l-8.09-21.76l-18.21,5.17L33.42,43.43L33.42,43.43z M61.94,35.27l21.38-6.12l-8.06-21.7L54.6,13.32 L61.94,35.27L61.94,35.27z M92.89,26.42l15.86-4.54L101.51,0L85.57,4.53L92.89,26.42L92.89,26.42z" clip-rule="evenodd" fill="#ffffff" class="color000 svgShape"></path></svg></g></svg>